<svg xmlns="http://www.w3.org/2000/svg" width="920" height="560" viewBox="0 0 920 560">
<rect width="100%" height="100%" fill="white"/>
<text x="460.0" y="30" text-anchor="middle" font-size="22" font-family="Arial">MMBench: Text Tokens vs Vision Tokens</text>
<text x="460.0" y="54" text-anchor="middle" font-size="13" font-family="Arial" fill="#555">Average text query length is far smaller than the standard 577 vision tokens</text>
<line x1="110" y1="470.00" x2="880" y2="470.00" stroke="#e6e6e6" stroke-width="1"/>
<text x="98" y="474.00" text-anchor="end" font-size="12" font-family="Arial">0</text>
<line x1="110" y1="390.00" x2="880" y2="390.00" stroke="#e6e6e6" stroke-width="1"/>
<text x="98" y="394.00" text-anchor="end" font-size="12" font-family="Arial">133</text>
<line x1="110" y1="310.00" x2="880" y2="310.00" stroke="#e6e6e6" stroke-width="1"/>
<text x="98" y="314.00" text-anchor="end" font-size="12" font-family="Arial">265</text>
<line x1="110" y1="230.00" x2="880" y2="230.00" stroke="#e6e6e6" stroke-width="1"/>
<text x="98" y="234.00" text-anchor="end" font-size="12" font-family="Arial">398</text>
<line x1="110" y1="150.00" x2="880" y2="150.00" stroke="#e6e6e6" stroke-width="1"/>
<text x="98" y="154.00" text-anchor="end" font-size="12" font-family="Arial">531</text>
<line x1="110" y1="70.00" x2="880" y2="70.00" stroke="#e6e6e6" stroke-width="1"/>
<text x="98" y="74.00" text-anchor="end" font-size="12" font-family="Arial">664</text>
<line x1="110" y1="470" x2="880" y2="470" stroke="#333" stroke-width="1.5"/>
<line x1="110" y1="70" x2="110" y2="470" stroke="#333" stroke-width="1.5"/>
<rect x="197.50" y="432.64" width="140" height="37.36" rx="6" fill="#4c78a8"/>
<text x="267.50" y="422.64" text-anchor="middle" font-size="16" font-family="Arial">62.0</text>
<text x="267.50" y="496" text-anchor="middle" font-size="13" font-family="Arial">Avg text query</text>
<rect x="425.00" y="398.07" width="140" height="71.93" rx="6" fill="#72b7b2"/>
<text x="495.00" y="388.07" text-anchor="middle" font-size="16" font-family="Arial">119.3</text>
<text x="495.00" y="496" text-anchor="middle" font-size="13" font-family="Arial">Avg full prompt</text>
<rect x="652.50" y="122.17" width="140" height="347.83" rx="6" fill="#e45756"/>
<text x="722.50" y="112.17" text-anchor="middle" font-size="16" font-family="Arial">577.0</text>
<text x="722.50" y="496" text-anchor="middle" font-size="13" font-family="Arial">Vision tokens</text>
<rect x="533.50" y="110.00" width="265" height="88" rx="10" fill="#f7f7f7" stroke="#dddddd"/>
<text x="547.50" y="134.00" font-size="13" font-family="Arial">Samples: 4329</text>
<text x="547.50" y="156.00" font-size="13" font-family="Arial">Avg text query tokens: 62.0</text>
<text x="547.50" y="178.00" font-size="13" font-family="Arial">Text query &lt; 577 in 99.8% of samples</text>
<text x="460.0" y="538" text-anchor="middle" font-size="14" font-family="Arial">Token count</text>
</svg>